<svg width="62" height="63" viewBox="0 0 62 63" fill="none" xmlns="http://www.w3.org/2000/svg">
<path d="M31 45.2368C27.46 45.2368 23.9197 43.8893 21.2247 41.1943C15.8344 35.8041 15.8344 27.0339 21.2247 21.6437C26.6144 16.2539 35.3854 16.2537 40.7751 21.6437C46.1653 27.0339 46.1653 35.8041 40.7751 41.1943C38.0804 43.8893 34.5401 45.2368 31 45.2368ZM31 20.1134C28.1037 20.1134 25.2071 21.2161 23.002 23.421C18.592 27.831 18.592 35.0068 23.002 39.417C27.4125 43.827 34.5878 43.827 38.9983 39.417C43.4083 35.0071 43.4083 27.8312 38.9983 23.421C36.7929 21.2161 33.8964 20.1134 31 20.1134Z" fill="black"/>
<path d="M23.8908 58.0789L4.34009 38.5282L38.1092 4.7591L57.6599 24.3098L23.8908 58.0789ZM7.89471 38.5282L23.8908 54.5243L54.1053 24.3098L38.1092 8.31372L7.89471 38.5282Z" fill="black"/>
<path d="M31.8885 37.8536C30.9231 37.8536 29.9576 37.4861 29.2229 36.7512L31 34.9739C31.4896 35.4635 32.2872 35.464 32.7773 34.9739L34.5546 33.1966C35.0445 32.7067 35.0445 31.9091 34.5546 31.4193C34.3173 31.182 34.0016 31.051 33.6658 31.051C33.33 31.051 33.0143 31.182 32.777 31.4193L31.0002 33.1966C29.5298 34.6672 27.138 34.6667 25.668 33.1966C24.1979 31.7264 24.1979 29.3345 25.668 27.8646L27.4454 26.0873C28.9153 24.6179 31.3071 24.6174 32.777 26.0873L31 27.8646C30.5103 27.375 29.7128 27.3745 29.2227 27.8646L27.4454 29.6419C26.9555 30.1318 26.9555 30.9294 27.4454 31.4193C27.6826 31.6565 27.9983 31.7875 28.3341 31.7875C28.6699 31.7875 28.9856 31.6565 29.2229 31.4193L30.9997 29.6419C32.4704 28.1715 34.8623 28.172 36.3319 29.6419C37.8021 31.1121 37.8021 33.504 36.3319 34.9739L34.5546 36.7512C33.8196 37.4859 32.8542 37.8536 31.8885 37.8536Z" fill="black"/>
<path d="M25.6677 24.311L23.8904 26.0883L25.6677 27.8656L27.445 26.0883L25.6677 24.311Z" fill="black"/>
<path d="M36.3316 34.9754L34.5543 36.7527L36.3316 38.53L38.1089 36.7527L36.3316 34.9754Z" fill="black"/>
<path d="M13.4054 20.1082L0 10.0541L13.4054 0V5.02704H34.2867L24.2326 15.0811H13.4054V20.1082ZM4.18903 10.0541L10.8918 15.0811V12.5676H23.1915L28.2185 7.54056H10.8918V5.02704L4.18903 10.0541Z" fill="black"/>
<path d="M48.5946 62.838V57.811H27.7133L37.7674 47.7569H48.5946V42.7298L62 52.7839L48.5946 62.838ZM33.7815 55.2974H51.1082V57.811L57.811 52.7839L51.1082 47.7569V50.2704H38.8085L33.7815 55.2974Z" fill="black"/>
</svg>
